<svg xmlns="http://www.w3.org/2000/svg" viewBox="0 0 38.094 38.094"><defs><style>.a{fill:#fff;fill-rule:evenodd;}</style></defs><path class="a" d="M19.047,3.386a58.4,58.4,0,0,1,7.619.212,9.816,9.816,0,0,1,3.6.635,7.432,7.432,0,0,1,3.6,3.6,9.816,9.816,0,0,1,.635,3.6c0,1.9.212,2.54.212,7.619a58.4,58.4,0,0,1-.212,7.619,9.816,9.816,0,0,1-.635,3.6,7.432,7.432,0,0,1-3.6,3.6,9.816,9.816,0,0,1-3.6.635c-1.9,0-2.54.212-7.619.212a58.4,58.4,0,0,1-7.619-.212,9.816,9.816,0,0,1-3.6-.635,7.432,7.432,0,0,1-3.6-3.6,9.816,9.816,0,0,1-.635-3.6c0-1.9-.212-2.54-.212-7.619A58.4,58.4,0,0,1,3.6,11.428a9.816,9.816,0,0,1,.635-3.6A7.6,7.6,0,0,1,5.714,5.714,3.578,3.578,0,0,1,7.83,4.233a9.816,9.816,0,0,1,3.6-.635,58.4,58.4,0,0,1,7.619-.212m0-3.386a62.532,62.532,0,0,0-7.83.212,13.065,13.065,0,0,0-4.656.847A8.285,8.285,0,0,0,3.174,3.174,8.285,8.285,0,0,0,1.058,6.561a9.643,9.643,0,0,0-.847,4.656A62.532,62.532,0,0,0,0,19.047a62.532,62.532,0,0,0,.212,7.83,13.065,13.065,0,0,0,.847,4.656,8.285,8.285,0,0,0,2.116,3.386,8.285,8.285,0,0,0,3.386,2.116,13.065,13.065,0,0,0,4.656.847,62.531,62.531,0,0,0,7.83.212,62.531,62.531,0,0,0,7.83-.212,13.065,13.065,0,0,0,4.656-.847,8.879,8.879,0,0,0,5.5-5.5,13.065,13.065,0,0,0,.847-4.656c0-2.116.212-2.751.212-7.83a62.531,62.531,0,0,0-.212-7.83,13.065,13.065,0,0,0-.847-4.656,8.285,8.285,0,0,0-2.116-3.386,8.285,8.285,0,0,0-3.386-2.116A13.065,13.065,0,0,0,26.877.212,62.532,62.532,0,0,0,19.047,0m0,9.312a9.578,9.578,0,0,0-9.735,9.735,9.709,9.709,0,0,0,9.735,9.735,10.175,10.175,0,0,0,6.883-2.836,9.274,9.274,0,0,0,2.852-6.9,9.709,9.709,0,0,0-9.735-9.735m0,16.084A6.236,6.236,0,0,1,12.7,19.047,6.236,6.236,0,0,1,19.047,12.7,6.236,6.236,0,0,1,25.4,19.047,6.236,6.236,0,0,1,19.047,25.4M29.205,6.561a2.328,2.328,0,1,0,2.328,2.328,2.349,2.349,0,0,0-2.328-2.328"/></svg>