<svg xmlns="http://www.w3.org/2000/svg" viewBox="0 0 42.158 34.195"><defs><style>.a{fill:#fff;fill-rule:evenodd;}</style></defs><path class="a" d="M51.35,36.2c15.926,0,24.592-13.116,24.592-24.592V10.432a19.038,19.038,0,0,0,4.216-4.45A19.443,19.443,0,0,1,75.24,7.387,9.112,9.112,0,0,0,78.987,2.7,21.483,21.483,0,0,1,73.6,4.811,8.365,8.365,0,0,0,67.277,2a8.8,8.8,0,0,0-8.666,8.666,4.566,4.566,0,0,0,.234,1.874,24.215,24.215,0,0,1-17.8-9.134,8.969,8.969,0,0,0-1.171,4.45,9.306,9.306,0,0,0,3.747,7.261,7.9,7.9,0,0,1-3.982-1.171h0a8.56,8.56,0,0,0,7.026,8.432,7.22,7.22,0,0,1-2.342.234,3.986,3.986,0,0,1-1.639-.234,8.873,8.873,0,0,0,8.2,6.09,17.683,17.683,0,0,1-10.774,3.747A6.484,6.484,0,0,1,38,31.979,22.107,22.107,0,0,0,51.35,36.2" transform="translate(-38 -2)"/></svg>