<svg xmlns="http://www.w3.org/2000/svg" viewBox="0 0 78.932 76.958"><defs><style>.a{fill:#ff26be;}.b{fill:#2e001f;}.c{fill:#ffd9f2;}</style></defs><path class="a" d="M64.954,76.959H13.978A13.966,13.966,0,0,1,0,62.981v-49A13.966,13.966,0,0,1,13.978,0H64.954A13.966,13.966,0,0,1,78.932,13.978v49A13.966,13.966,0,0,1,64.954,76.959Z"/><path class="b" d="M70.416,80.381H21.938A11.959,11.959,0,0,1,10,68.442v-46.5A11.959,11.959,0,0,1,21.938,10H70.383A11.938,11.938,0,0,1,82.321,21.938V68.41A11.917,11.917,0,0,1,70.416,80.381Z" transform="translate(-6.711 -6.711)"/><path class="c" d="M61.281,74.2,70.49,91.893c.164.263.066.526-.2.526H64.57a.645.645,0,0,1-.691-.428c-2.1-4.341-4.243-8.682-6.446-13.353h-.066c-1.973,4.407-4.144,9.044-6.249,13.386a.632.632,0,0,1-.592.362H45.1c-.329,0-.362-.263-.2-.46l9.011-17.168L45.2,57.393a.266.266,0,0,1,.2-.46h5.657a.518.518,0,0,1,.592.362c2.072,4.341,4.177,8.814,6.15,13.188h.066c1.908-4.341,4.012-8.847,6.051-13.155.164-.263.263-.428.592-.428h5.3c.263,0,.362.2.2.46ZM72.1,79.56c0-7.663,5.1-13.649,13.188-13.649a14.587,14.587,0,0,1,1.71.066V57.262a.33.33,0,0,1,.329-.329h5.2c.263,0,.329.1.329.263V87.387a23.425,23.425,0,0,0,.164,3.223c0,.2-.066.263-.263.362a19.59,19.59,0,0,1-8.419,1.908C77.2,92.913,72.1,88.506,72.1,79.56ZM87,71.141a4.974,4.974,0,0,0-1.908-.329c-4.144,0-7.038,3.19-7.038,8.485,0,6.051,2.96,8.485,6.676,8.485A6.2,6.2,0,0,0,87,87.42Z" transform="translate(-30.07 -38.187)"/></svg>