<svg xmlns="http://www.w3.org/2000/svg" viewBox="0 0 53.576 38.332"><defs><style>.a{fill:#fff;}</style></defs><g transform="translate(-4 3)"><path class="a" d="M28.072,85.938h0c-6.093,0-12.726-.192-19.713-.569A8.334,8.334,0,0,1,.572,77.628a103.361,103.361,0,0,1,0-21.715,8.382,8.382,0,0,1,7.777-7.738,299.078,299.078,0,0,1,36.875,0,8.3,8.3,0,0,1,7.781,7.734,103.6,103.6,0,0,1,0,21.716,8.308,8.308,0,0,1-7.771,7.742C39.94,85.746,34.165,85.938,28.072,85.938ZM26.647,49.663c-6.073,0-12.186.191-18.17.567a6.28,6.28,0,0,0-5.859,5.9,101.331,101.331,0,0,0,0,21.283,6.236,6.236,0,0,0,5.851,5.9c6.951.374,13.547.566,19.6.566s11.77-.19,17.018-.565a6.3,6.3,0,0,0,5.869-5.9,101.358,101.358,0,0,0,0-21.283,6.293,6.293,0,0,0-5.859-5.9C38.93,49.853,32.721,49.663,26.647,49.663Zm-5.1,9.82V73.606L35.11,66.592Z" transform="translate(4 -50.606)"/></g></svg>